<?xml version="1.0" standalone="no"?>
<!DOCTYPE svg PUBLIC "-//W3C//DTD SVG 20010904//EN"
 "http://www.w3.org/TR/2001/REC-SVG-20010904/DTD/svg10.dtd">
<svg version="1.0" xmlns="http://www.w3.org/2000/svg"
 width="300.000000pt" height="300.000000pt" viewBox="0 0 300.000000 300.000000"
 preserveAspectRatio="xMidYMid meet">
<metadata>
Created by potrace 1.11, written by Peter Selinger 2001-2013
</metadata>
<g transform="translate(0.000000,300.000000) scale(0.100000,-0.100000)"
fill="#000000" stroke="none">
<path d="M1373 2643 c9 -2 25 -2 35 0 9 3 1 5 -18 5 -19 0 -27 -2 -17 -5z"/>
<path d="M1593 2643 c15 -2 37 -2 50 0 12 2 0 4 -28 4 -27 0 -38 -2 -22 -4z"/>
<path d="M1298 2633 c7 -3 16 -2 19 1 4 3 -2 6 -13 5 -11 0 -14 -3 -6 -6z"/>
<path d="M1750 2620 c117 -25 200 -54 304 -108 232 -119 404 -300 497 -520 23
-56 46 -97 50 -91 4 6 14 -12 24 -40 19 -58 26 -63 113 -81 35 -7 70 -19 78
-27 17 -17 17 -57 4 -176 -12 -100 -28 -139 -68 -164 -93 -60 -92 -123 3 -137
46 -7 78 -32 54 -41 -8 -3 -86 -8 -174 -12 l-160 -8 89 -19 c85 -18 94 -18
174 -3 47 9 89 22 93 29 25 41 33 426 10 505 -12 45 -26 53 -127 69 -56 8 -58
11 -79 74 -26 81 -108 236 -164 311 -115 152 -296 293 -473 370 -96 42 -262
89 -307 88 -14 0 12 -9 59 -19z"/>
<path d="M1248 2623 c7 -3 16 -2 19 1 4 3 -2 6 -13 5 -11 0 -14 -3 -6 -6z"/>
<path d="M940 2514 c-138 -74 -260 -170 -341 -267 -32 -39 -24 -33 34 25 98
99 199 175 317 237 52 28 91 51 85 51 -5 0 -48 -21 -95 -46z"/>
<path d="M1365 2425 c-69 -12 -217 -56 -211 -62 1 -2 38 6 82 18 103 28 341
31 451 6 191 -43 387 -149 495 -266 56 -60 148 -204 148 -231 0 -8 -12 4 -26
28 -37 61 -40 52 -3 -12 l30 -55 -48 -4 c-48 -3 -48 -3 10 -5 47 -2 63 -7 83
-27 14 -14 35 -25 47 -25 16 0 18 3 8 9 -7 5 -23 34 -36 65 -49 120 -136 235
-255 340 -211 183 -511 269 -775 221z"/>
<path d="M1498 2373 c6 -2 18 -2 25 0 6 3 1 5 -13 5 -14 0 -19 -2 -12 -5z"/>
<path d="M1398 2363 c7 -3 16 -2 19 1 4 3 -2 6 -13 5 -11 0 -14 -3 -6 -6z"/>
<path d="M1608 2363 c7 -3 16 -2 19 1 4 3 -2 6 -13 5 -11 0 -14 -3 -6 -6z"/>
<path d="M885 2211 c-57 -44 -168 -165 -215 -234 -17 -26 -43 -75 -57 -109
-14 -35 -30 -66 -37 -71 -6 -4 -27 -5 -46 -1 -25 4 -32 3 -24 -5 7 -8 35 -9
82 -5 61 6 70 9 60 21 -17 21 6 32 67 35 44 1 45 2 13 5 -43 5 -43 4 -23 43 9
17 13 30 11 30 -3 0 -13 -14 -22 -31 -12 -24 -18 -29 -27 -20 -9 9 0 35 38
108 43 83 62 107 145 184 52 49 93 89 90 89 -3 0 -27 -18 -55 -39z"/>
<path d="M539 2173 c-13 -16 -12 -17 4 -4 16 13 21 21 13 21 -2 0 -10 -8 -17
-17z"/>
<path d="M2150 2105 c30 -30 57 -55 59 -55 3 0 -19 25 -49 55 -30 30 -57 55
-59 55 -3 0 19 -25 49 -55z"/>
<path d="M509 2133 c-13 -16 -12 -17 4 -4 9 7 17 15 17 17 0 8 -8 3 -21 -13z"/>
<path d="M804 2048 l-19 -23 23 19 c12 11 22 21 22 23 0 8 -8 2 -26 -19z"/>
<path d="M2220 2026 c0 -2 8 -10 18 -17 15 -13 16 -12 3 4 -13 16 -21 21 -21
13z"/>
<path d="M397 1855 l-16 -45 31 0 c30 0 30 0 14 25 -10 15 -14 34 -11 45 13
41 -4 18 -18 -25z"/>
<path d="M1453 1863 c20 -2 54 -2 75 0 20 2 3 4 -38 4 -41 0 -58 -2 -37 -4z"/>
<path d="M1023 1853 c9 -2 25 -2 35 0 9 3 1 5 -18 5 -19 0 -27 -2 -17 -5z"/>
<path d="M1943 1853 c9 -2 25 -2 35 0 9 3 1 5 -18 5 -19 0 -27 -2 -17 -5z"/>
<path d="M272 1791 c-45 -10 -85 -21 -88 -24 -39 -39 -39 -506 0 -545 7 -7 48
-20 92 -29 l79 -17 37 -95 c82 -211 259 -431 433 -536 40 -25 24 -9 -55 52
-165 129 -291 301 -351 478 -13 39 -30 76 -37 84 -7 7 -11 15 -9 17 2 2 39 12
82 22 l79 19 -94 6 c-51 4 -113 7 -137 7 -40 0 -55 11 -34 24 11 7 122 15 209
16 55 0 63 2 60 18 -2 9 -10 16 -16 14 -7 -1 -12 2 -12 7 0 6 -17 11 -37 13
-27 2 -41 9 -47 24 -5 12 -29 28 -58 38 -65 23 -102 62 -143 150 -27 56 -35
87 -35 129 0 93 8 103 90 118 39 7 73 16 76 21 3 4 4 8 2 7 -2 0 -40 -9 -86
-18z"/>
<path d="M430 1495 l0 -155 45 0 44 0 3 110 3 111 68 -111 68 -110 75 0 74 0
0 155 0 155 -40 0 -40 0 0 -110 c0 -60 -3 -110 -7 -110 -5 1 -39 50 -76 110
l-69 110 -74 0 -74 0 0 -155z"/>
<path d="M860 1495 l0 -155 45 0 45 0 0 155 0 155 -45 0 -45 0 0 -155z"/>
<path d="M1053 1640 c-29 -12 -43 -40 -43 -89 0 -70 19 -80 175 -98 55 -6 71
-12 73 -25 3 -16 -8 -18 -122 -18 l-126 0 0 -35 0 -35 145 0 c142 0 147 1 170
25 28 27 33 76 14 119 -15 33 -28 38 -139 50 -76 9 -95 15 -98 28 -3 15 10 18
115 20 l118 3 0 30 0 30 -130 2 c-71 1 -140 -2 -152 -7z"/>
<path d="M1444 1640 c-48 -19 -67 -81 -42 -135 13 -29 48 -40 161 -50 67 -6
77 -9 77 -26 0 -18 -9 -19 -125 -19 l-125 0 0 -35 0 -35 145 0 c142 0 147 1
170 25 33 32 34 93 3 130 -20 22 -36 27 -123 38 -80 10 -100 15 -103 29 -3 16
9 18 115 20 l118 3 0 30 0 30 -125 2 c-69 1 -135 -2 -146 -7z"/>
<path d="M1882 1638 c-10 -14 -132 -282 -132 -292 0 -3 20 -6 46 -6 41 0 46 3
55 30 l11 30 88 0 88 0 12 -30 c11 -27 17 -30 60 -30 l48 0 -65 148 c-37 81
-71 150 -77 154 -19 13 -123 9 -134 -4z m101 -100 c8 -24 18 -51 22 -60 6 -16
1 -18 -49 -18 -42 0 -56 4 -56 14 0 28 40 106 54 106 8 0 21 -19 29 -42z"/>
<path d="M2200 1495 l0 -155 40 0 39 0 3 112 3 112 69 -112 68 -113 72 3 71 3
0 150 0 150 -37 3 -37 3 -3 -117 -3 -118 -75 115 -75 114 -67 3 -68 3 0 -156z"/>
<path d="M623 1118 c26 -54 50 -98 52 -98 3 0 1 9 -5 19 -15 29 -13 31 19 20
16 -6 41 -28 56 -50 37 -56 159 -183 218 -226 27 -20 77 -51 111 -69 33 -19
55 -34 47 -34 -13 0 -102 46 -236 120 l-40 22 50 -47 c59 -54 241 -147 330
-169 134 -32 170 -27 72 9 -26 10 -45 20 -43 22 2 3 36 0 75 -6 38 -6 121 -10
183 -9 l113 1 -150 8 c-205 10 -338 52 -492 157 -83 56 -204 187 -257 279
l-46 78 107 6 c97 4 100 5 34 7 -41 1 -72 4 -69 8 6 5 1287 8 1458 3 l85 -3
-90 -6 -90 -6 108 -2 108 -2 -34 -65 c-19 -36 -33 -65 -31 -65 2 0 15 17 29
38 23 33 25 34 20 10 -6 -24 -4 -26 15 -21 13 4 32 28 52 67 16 33 38 70 48
81 19 20 18 20 -918 20 l-937 0 48 -97z"/>
<path d="M1213 1143 c148 -2 386 -2 530 0 144 1 24 2 -268 2 -291 0 -409 -1
-262 -2z"/>
<path d="M2578 1021 c-61 -128 -117 -210 -207 -304 -85 -89 -175 -158 -281
-216 -76 -42 -111 -53 -75 -25 l20 16 -20 -5 c-92 -25 -153 -29 -179 -12 -30
20 -50 62 -33 69 25 10 -26 6 -121 -10 -283 -47 -612 40 -837 220 -61 49 -69
53 -54 25 22 -42 172 -183 224 -210 98 -52 111 -59 198 -100 76 -36 87 -44 81
-61 -4 -12 -1 -24 7 -30 14 -10 -45 -4 -101 9 -14 3 -22 3 -19 0 14 -16 166
-39 284 -44 418 -16 819 186 1043 526 53 80 130 237 120 246 -2 1 -24 -41 -50
-94z"/>
<path d="M2220 968 c-19 -24 -26 -37 -17 -29 19 15 61 71 54 71 -2 0 -19 -19
-37 -42z"/>
<path d="M2149 883 l-24 -28 28 24 c15 14 27 26 27 28 0 8 -8 1 -31 -24z"/>
<path d="M2084 828 l-19 -23 23 19 c12 11 22 21 22 23 0 8 -8 2 -26 -19z"/>
<path d="M1748 653 c7 -3 16 -2 19 1 4 3 -2 6 -13 5 -11 0 -14 -3 -6 -6z"/>
<path d="M1708 643 c7 -3 16 -2 19 1 4 3 -2 6 -13 5 -11 0 -14 -3 -6 -6z"/>
<path d="M1658 633 c6 -2 18 -2 25 0 6 3 1 5 -13 5 -14 0 -19 -2 -12 -5z"/>
<path d="M860 526 c0 -3 9 -10 20 -16 11 -6 20 -8 20 -6 0 3 -9 10 -20 16 -11
6 -20 8 -20 6z"/>
<path d="M910 495 c0 -7 81 -47 86 -43 2 3 -17 14 -41 26 -25 12 -45 20 -45
17z"/>
<path d="M1148 393 c7 -3 16 -2 19 1 4 3 -2 6 -13 5 -11 0 -14 -3 -6 -6z"/>
</g>
</svg>
